Coordinates
version=1
nRows=11
nColumns=63
inDegrees=yes

Units are S.I. units (second, meters, Newtons, ...)
If the header above contains a line with 'inDegrees', this indicates whether rotational values are in degrees (yes) or radians (no).

endheader
time	pelvis_tilt	pelvis_list	pelvis_rotation	pelvis_tx	pelvis_ty	pelvis_tz	hip_flexion_r	hip_adduction_r	hip_rotation_r	knee_angle_r	knee_angle_r_beta	ankle_angle_r	subtalar_angle_r	mtp_angle_r	hip_flexion_l	hip_adduction_l	hip_rotation_l	knee_angle_l	knee_angle_l_beta	ankle_angle_l	subtalar_angle_l	mtp_angle_l	L5_S1_Flex_Ext	L5_S1_Lat_Bending	L5_S1_axial_rotation	L4_L5_Flex_Ext	L4_L5_Lat_Bending	L4_L5_axial_rotation	L3_L4_Flex_Ext	L3_L4_Lat_Bending	L3_L4_axial_rotation	L2_L3_Flex_Ext	L2_L3_Lat_Bending	L2_L3_axial_rotation	L1_L2_Flex_Ext	L1_L2_Lat_Bending	L1_L2_axial_rotation	L1_T12_Flex_Ext	L1_T12_Lat_Bending	L1_T12_axial_rotation	Abs_r3	Abs_r2	Abs_r1	Abs_t1	Abs_t2	neck_flexion	neck_bending	neck_rotation	arm_flex_r	arm_add_r	arm_rot_r	elbow_flex_r	pro_sup_r	wrist_flex_r	wrist_dev_r	arm_flex_l	arm_add_l	arm_rot_l	elbow_flex_l	pro_sup_l	wrist_flex_l	wrist_dev_l
3.490909	-6.305204	-0.831000	75.729371	0.200569	0.933462	0.476849	0.564283	-4.821756	7.741580	4.766375	0.083189	24.884679	10.669200	0.000000	-1.322947	4.256048	-5.814218	2.693113	0.047004	16.890226	-12.774318	0.000000	0.116150	-0.648274	4.166888	0.215701	-0.862204	4.427319	0.190822	-1.576213	4.427319	0.132747	-1.576213	3.646027	0.107856	-1.321960	3.385597	0.066368	-1.004176	3.125166	0.829644	-7.333403	23.174982	0.000000	0.000000	27.908489	-4.520981	-16.887717	24.972685	-8.504067	157.388034	4.550953	8.901766	-15.173927	-11.555886	28.371043	-5.401142	166.699627	4.002147	14.629241	-8.339785	-7.596932
3.509091	-6.522759	-0.972722	75.179338	0.201530	0.933888	0.478867	1.118500	-4.970669	7.069912	5.044868	0.088050	25.150801	12.454231	0.000000	-1.059210	4.403184	-7.042812	2.591140	0.045224	16.703792	-12.153887	0.000000	0.121898	-0.695695	4.238014	0.226376	-0.925274	4.502890	0.200266	-1.691512	4.502890	0.139317	-1.691512	3.708262	0.113194	-1.418661	3.443387	0.069652	-1.077631	3.178511	0.870704	-7.869838	23.570564	0.000000	0.000000	27.928728	-4.115703	-17.538350	27.478982	-8.365429	159.368673	3.734646	8.381887	-16.476717	-13.094412	30.789474	-4.529472	171.937906	1.498306	9.297072	-5.905195	-9.559435
3.527273	-6.730006	-1.096034	74.674167	0.202461	0.934295	0.481038	1.662131	-5.091122	6.587779	5.332143	0.093063	25.408719	13.927042	0.000000	-0.745033	4.516983	-8.423147	2.611023	0.045571	16.605426	-11.270005	0.000000	0.127444	-0.737955	4.266037	0.236677	-0.981480	4.532665	0.209378	-1.794264	4.532665	0.145656	-1.794264	3.732783	0.118345	-1.504838	3.466155	0.072822	-1.143092	3.199528	0.910321	-8.347895	23.726420	0.000000	0.000000	27.892620	-3.581779	-17.726556	30.006227	-8.007178	160.806145	2.937227	7.799114	-17.616448	-14.466173	33.104140	-3.939031	173.259141	-0.072416	6.059460	-3.359080	-11.154197
3.545455	-6.928684	-1.186749	74.172608	0.203413	0.934684	0.483247	2.170523	-5.196535	6.368551	5.604080	0.097810	25.640716	15.043883	0.000000	-0.451090	4.624419	-9.795734	2.654822	0.046335	16.493663	-10.402776	0.000000	0.130488	-0.775933	4.269121	0.242330	-1.031990	4.535941	0.214379	-1.886603	4.535941	0.149135	-1.886603	3.735481	0.121172	-1.582282	3.468661	0.074561	-1.201920	3.201841	0.932066	-8.777505	23.743570	0.000000	0.000000	27.857864	-2.970620	-17.597692	32.519261	-7.415866	161.859707	2.108677	7.061629	-18.184080	-15.860752	35.297963	-3.551191	171.100186	-0.708469	4.847724	-0.953568	-12.405791
3.563636	-7.103209	-1.264239	73.708993	0.204324	0.935040	0.485388	2.638748	-5.268732	6.368057	5.834855	0.101837	25.837393	15.818371	0.000000	-0.167737	4.704843	-11.153701	2.724145	0.047545	16.437668	-9.474903	0.000000	0.133994	-0.806031	4.245875	0.248840	-1.072021	4.511242	0.220139	-1.959784	4.511242	0.153142	-1.959784	3.715140	0.124427	-1.643659	3.449773	0.076564	-1.248542	3.184406	0.957105	-9.117985	23.614281	0.000000	0.000000	27.828288	-2.315437	-17.090067	34.997951	-6.581887	162.223296	1.325892	6.272535	-18.052462	-17.229572	37.280264	-3.298149	165.639212	-0.463870	5.331703	1.324076	-13.247160
3.581818	-7.249005	-1.332321	73.292414	0.205190	0.935359	0.487354	3.051533	-5.304782	6.616135	6.000475	0.104728	25.988864	16.207938	0.000000	0.096374	4.754234	-12.432826	2.811345	0.049067	16.468342	-8.521538	0.000000	0.138192	-0.827794	4.205412	0.256636	-1.100966	4.468251	0.227035	-2.012698	4.468251	0.157939	-2.012698	3.679736	0.128325	-1.688037	3.416898	0.078963	-1.282252	3.154059	0.987089	-9.364168	23.389242	0.000000	0.000000	27.807087	-1.661540	-16.269390	37.426837	-5.536119	161.589006	0.661338	5.536212	-17.021151	-18.525406	39.027433	-3.146972	157.304814	0.684357	7.289486	3.298866	-13.500781
3.600000	-7.352305	-1.395364	72.939114	0.205961	0.935643	0.489096	3.406278	-5.297736	7.010975	6.101651	0.106494	26.124811	16.338238	0.000000	0.338560	4.761915	-13.616655	2.909681	0.050784	16.621414	-7.540400	0.000000	0.143140	-0.839161	4.149897	0.265826	-1.116084	4.409265	0.235166	-2.040336	4.409265	0.163595	-2.040336	3.631160	0.132920	-1.711217	3.371791	0.081790	-1.299860	3.112423	1.022438	-9.492755	23.080482	0.000000	0.000000	27.802969	-1.042216	-15.169793	39.834675	-4.313935	160.253368	0.221495	4.567586	-15.112428	-19.622851	40.529769	-3.049021	146.815391	2.717388	10.122453	4.790500	-12.977923
3.618182	-7.422267	-1.427790	72.626323	0.206665	0.935919	0.490602	3.681291	-5.261923	7.639453	6.143750	0.107229	26.232112	16.102014	0.000000	0.534105	4.745242	-14.694320	3.022054	0.052745	16.904086	-6.573431	0.000000	0.145573	-0.841456	4.092536	0.270343	-1.119137	4.348319	0.239161	-2.045917	4.348319	0.166375	-2.045917	3.580969	0.135179	-1.715898	3.325185	0.083180	-1.303416	3.069402	1.039811	-9.518723	22.761457	0.000000	0.000000	27.782917	-0.475481	-13.838625	42.194409	-3.002563	157.492356	0.185117	3.747483	-12.639318	-20.371781	41.797519	-3.016586	134.598853	5.496216	14.121952	5.798720	-11.877111
3.636364	-7.440332	-1.443600	72.363508	0.207255	0.936188	0.491845	3.891768	-5.191280	8.164611	6.147838	0.107300	26.376951	15.960132	0.000000	0.691292	4.685881	-15.683987	3.146272	0.054913	17.322637	-5.592741	0.000000	0.147178	-0.832263	4.033432	0.273324	-1.106910	4.285522	0.241799	-2.023564	4.285522	0.168210	-2.023564	3.529253	0.136669	-1.697151	3.277164	0.084098	-1.289175	3.025074	1.051278	-9.414726	22.432740	0.000000	0.000000	27.759124	-0.007230	-12.340017	44.449017	-1.599052	154.644841	0.307849	2.833662	-9.627433	-20.891451	42.800710	-2.982521	121.775090	8.902797	18.470125	6.387226	-9.961877
3.654545	-7.410356	-1.435208	72.163126	0.207724	0.936461	0.492805	4.017449	-5.087505	8.743959	6.103981	0.106535	26.511689	15.668730	0.000000	0.805459	4.590501	-16.547697	3.288329	0.057392	17.843454	-4.651099	0.000000	0.147176	-0.812964	3.973579	0.273320	-1.081242	4.221928	0.241795	-1.976640	4.221928	0.168207	-1.976640	3.476882	0.136667	-1.657795	3.228533	0.084096	-1.259281	2.980185	1.051261	-9.196406	22.099857	0.000000	0.000000	27.716887	0.360058	-10.729814	46.540808	-0.168683	151.714177	0.560978	2.154800	-6.187724	-21.219463	43.532570	-2.982122	108.460258	12.775546	23.566243	6.728262	-7.228438
3.672727	-7.342611	-1.397419	72.022068	0.208111	0.936743	0.493496	4.057580	-4.962982	9.341699	6.022838	0.105118	26.636579	15.282027	0.000000	0.874090	4.470240	-17.269403	3.447232	0.060166	18.429901	-3.789698	0.000000	0.145511	-0.786224	3.912448	0.270229	-1.045678	4.156976	0.239061	-1.911626	4.156976	0.166305	-1.911626	3.423392	0.135122	-1.603269	3.178864	0.083145	-1.217861	2.934336	1.039373	-8.893927	21.759864	0.000000	0.000000	27.645639	0.634228	-9.060940	48.422995	1.266722	149.011890	0.857501	1.764091	-2.470606	-21.389487	43.990484	-3.040409	95.042506	16.942565	29.277326	7.021236	-3.782050
